<svg width="20.000000" height="20.000000" viewBox="0 0 20 20" fill="none" xmlns="http://www.w3.org/2000/svg" xmlns:xlink="http://www.w3.org/1999/xlink">
	<desc>
			Created with Pixso.
	</desc>
	<defs>
		<clipPath id="clip1_22800">
			<rect id="check" width="20.000000" height="20.000000" fill="white" fill-opacity="0"/>
		</clipPath>
	</defs>
	<rect id="check" width="20.000000" height="20.000000" fill="#FFFFFF" fill-opacity="0"/>
	<g clip-path="url(#clip1_22800)">
		<path id="Vector" d="M16.7 5.29C16.89 5.48 16.99 5.73 16.99 6C16.99 6.26 16.89 6.51 16.7 6.7L8.7 14.7C8.51 14.89 8.26 14.99 8 14.99C7.73 14.99 7.48 14.89 7.29 14.7L3.29 10.7C3.11 10.51 3.01 10.26 3.01 10C3.01 9.74 3.11 9.49 3.3 9.3C3.49 9.11 3.74 9.01 4 9.01C4.26 9.01 4.51 9.11 4.7 9.29L8 12.58L15.29 5.29C15.48 5.1 15.73 5 16 5C16.26 5 16.51 5.1 16.7 5.29Z" fill="#0694A2" fill-opacity="1.000000" fill-rule="evenodd"/>
	</g>
</svg>
